<svg width="150" height="150" fill="none" xmlns="http://www.w3.org/2000/svg"><rect width="150" height="150" rx="5" fill="#F6F7F9"/><path fill-rule="evenodd" clip-rule="evenodd" d="m101.339 117.795-.275-18.382L75 83.774 48.662 99.413l-.274 18.382s-11.798-6.859-15.364-9.329c-3.293-2.194-3.018-6.859-3.018-9.053v-38.41c0-6.585 4.115-8.506 7.133-10.426 3.018-1.646 29.356-16.736 31.825-18.382C70.612 31.097 73.08 30 75 30s4.116 1.097 5.762 2.195c2.743 1.646 28.808 16.736 31.825 18.382 3.293 1.92 7.408 3.84 7.408 10.425v38.41c0 2.195.274 6.86-3.292 9.054-3.567 2.47-15.364 9.329-15.364 9.329ZM75 63.472c2.47 0 3.567.548 5.487 1.646 1.921 1.646 20.303 12.072 20.303 12.072V65.94S81.585 54.419 79.939 53.32c-1.646-.823-3.018-1.646-4.939-1.646-1.92 0-3.566.823-5.212 1.646-1.647 1.098-20.852 12.62-20.852 12.62l.275 11.25s18.107-10.426 20.028-12.072A10.151 10.151 0 0 1 75 63.472Z" fill="#50B95D"/></svg>